<svg viewBox="0 0 865.67 1255.15" xmlns="http://www.w3.org/2000/svg"><path d="m445.71 803.15h288.11a39.89 39.89 0 0 1 39.89 39.85v.24h-367.89v-.24a39.89 39.89 0 0 1 39.89-39.85z" fill="#fff" stroke="#6562cf" stroke-miterlimit="10" stroke-width="5"/><path d="m483 845.05 213.53 407.1m0-407.1-213.53 407.1" fill="none" stroke="#6562cf" stroke-linecap="round" stroke-miterlimit="10" stroke-width="6"/><path d="m4 1246.78s62.76 0 92.27-.18c24.82-.16 73.7 4.94 74.46-6.94 1.54-23.9-14.4-37.18-12.42-52.26a119.77 119.77 0 0 1 -56.71-12.4c-6.4 6.25-42.07 39.94-71.37 43.39-32.32 3.81-26.23 28.39-26.23 28.39z" fill="#dbdaff"/><path d="m3 1248.78s138.76 0 168.27-.18" fill="none" stroke="#6562cf" stroke-linecap="round" stroke-miterlimit="10" stroke-width="6"/><path d="m81.24 1204.35s-17.92-20.67-24.33-1.42c-5.08 15.25 4.52 18.68 7.18 12.27 1.52-3.68-14-13.71-19.89-6.73-3.3 3.92-2.77 7.63-2.77 7.63" fill="none" stroke="#6562cf" stroke-linecap="round" stroke-miterlimit="10" stroke-width="4"/><path d="m179 767.23c22.5-65.54 325.64-101.5 325.64-101.5l95.95 2.58c4.79 15.84 13.42 122.12-56.83 160.88-74.55 41.13-243.18-12.26-243.18-12.26s9.88 205.18-134.27 373.76l-94.06-10c40.27-158.48 84.99-350.22 106.75-413.46z" fill="#3c4564"/><path d="m236 1246.78s62.76 0 92.27-.18c24.82-.16 73.7 4.94 74.46-6.94 1.54-23.9-14.4-37.18-12.42-52.26a119.77 119.77 0 0 1 -56.71-12.4c-6.4 6.25-42.07 39.94-71.37 43.39-32.32 3.81-26.23 28.39-26.23 28.39z" fill="#dbdaff"/><path d="m235 1248.78s138.76 0 168.27-.18" fill="none" stroke="#6562cf" stroke-linecap="round" stroke-miterlimit="10" stroke-width="6"/><path d="m313.24 1204.35s-17.92-20.67-24.33-1.42c-5.08 15.25 4.52 18.68 7.18 12.27 1.52-3.68-14-13.71-19.89-6.73-3.3 3.92-2.77 7.63-2.77 7.63" fill="none" stroke="#6562cf" stroke-linecap="round" stroke-miterlimit="10" stroke-width="4"/><path d="m306.2 766.62c13.93-44.92 237.56-99.62 237.56-99.62l190.15 4.29c4.78 15.84 23.11 109.12-47.14 147.88-74.55 41.13-267.57 22.54-267.57 22.54s71.16 126.77-18.62 349l-90.47-10c15.73-117.83-23.71-350.23-3.91-414.09z" fill="#424d76"/><path d="m516.79 635.38s-29.61-105.38-53.95-218.38c0 0-60.27-20.5-95-59.26 0 0 55.74-98.72 98.64-113.65 36.93-12.85 90.13-25.24 90.13-25.24l119.76-8.9s87.63 23.87 118.82 48.53c36.25 28.65 54.28 122.59 54.28 122.59s-42.06 3.09-103.53 39.64l-14.44 214.67c4.15 27.49 14.1 64.32 14.1 64.32s-120.67 28.37-277.83-31.6c0 0 54.83-11.49 49.02-32.72z" fill="#dbdaff"/><path d="m368 358.46-39.56 59.86s-108.54-142.68-120.05-159.12l-35.71 11.9s84.58 260.22 153.25 260.22c54.6 0 135.67-114.32 135.67-114.32s-71.66-33.65-93.6-58.54z" fill="#e49647"/><path d="m208.39 259.32s-.13-36.54-8.24-48.71-30.78-56-39.18-51.45c-3.87 2.1 10.29 38.6 10.29 38.6s-7.81-3.73-13.47 2.36-6.32 1-14.1 4.4-4.74 9.66-14.21 10.34c-6.82.48-6.31 8.76-2 17 5.75 11.16 37.14 42.4 46.91 39.24s34-11.78 34-11.78z" fill="#e49647"/><g stroke-miterlimit="10"><path d="m128.85 229.61c1.07 2.3 8.51 19.2 18.2 15.6s-8.05-28.91-8.05-28.91 14.43 26.65 23.89 22.6-8.34-29.53-8.34-29.53" fill="none" stroke="#cb884b" stroke-width="3"/><path d="m199.43 213.83c-3.22-5.45-6.83-8.07-16.3-5.82s-24 7.29-24 7.29 1.83 12.52 13.52 10.52c7.89-1.35 7.89-1.35 8.11.45s1.26 13.08 5.1 20.29" fill="none" stroke="#cb884b" stroke-width="3"/><path d="m352.6 454.46h158.67c21.85 0 42.46 15 46 33.39l23.07 118.88c3.57 18.44 24.19 33.39 46 33.39h-158.62c-21.85 0-42.45-15-46-33.39l-22.85-117.63c-3.09-16-18.68-28-37.05-31.35l-8.82-1.25z" fill="#fff" stroke="#6562cf" stroke-width="5"/></g><path d="m856.7 565.65c-23.4 32.95-189.7 61.48-226.16 67.35a26.28 26.28 0 0 1 -5.2 1.22c-7.79 1-48.19 3.43-56.23.85-9.47-3.05-27.43-20.18-28.4-22.83s-5.78-24.92-5.78-24.92 12.56-1.85 19.46 11.57c6.21 12.1 19.69 10.79 28 10.07 3.46-.3 10.09-5.45 9-10.69s-7.51-3.45-10.9-5.71l-2.44-12.06 15.42-.17c3.77-.05 24.58 8.13 37.47 19.82 35.42-20.32 115.93-65.45 156.75-79.66l-41.8-99.82s38.2-32.82 103-40c.11 0 31.81 151.17 7.81 184.98z" fill="#e49647"/><path d="m640.91 123.64s-8.77 61.82 37.39 87c0 0-56.57 42.84-100.4 45.58s-25-34.91-25-34.91 10.79-21.29 7.38-73.57z" fill="#e49647"/><path d="m560.25 147.75 78.86-23.58c-1.05 3.94-5.62 58.64-69.07 75.4-3.79 1-7.64-.13-11.15-1.63 1.72-11.74 2.8-28.23 1.36-50.19z" fill="#d48845"/><path d="m640.4 124s-19 43.32-70.35 49.58c-45.79 5.59-68.3-122.09-.69-134.3 74.3-13.41 65.46 66.13 65.46 66.13s10.9-8 16-1.67-10.42 20.26-10.42 20.26z" fill="#e49647"/><path d="m641.32 118.24-6.09-12.06c-14.23-4.73-12.5-24.18-7.34-34.72-3.37 2-9.79 3.82-20.95 2.87-6.2-.53 5.76-11.09.83-11.92s-15.21 10.28-30.42 11.51 1.15-10.34 2.09-16.43c.82-5.34-9.27 1.69-14.54 5-19.58 12.43-36.12 9.42-37.51 28 0 0-15.7-24.44-15.7-36 0-29.19 52.93-56.65 74.84-54.45 19.21 1.96 33.47 18.47 36.68 22.51a15.77 15.77 0 0 1 6.42-5.49c4.91-2.52 9.82-2.77 11-.55s-1.92 6.07-6.83 8.59c-.3.15-.59.3-.89.43 7.41 2.11 17.92 6 25.62 12.77 25.71 22.46-17.21 79.94-17.21 79.94z" fill="#ffb000"/><path d="m634.82 106.63s8.35-9.14 16-2.91-12.88 22.74-12.88 22.74z" fill="#e49647"/></svg>