<svg viewBox="0 0 521.4 1252.69" xmlns="http://www.w3.org/2000/svg"><path d="m218.59 1114.59h156.34" fill="none" stroke="#424d76" stroke-linecap="round" stroke-miterlimit="10" stroke-width="5"/><path d="m164.38 771.7 274.76 447.1" fill="none" stroke="#424d76" stroke-linecap="round" stroke-miterlimit="10" stroke-width="5"/><path d="m429.14 771.7-274.76 447.1" fill="none" stroke="#424d76" stroke-linecap="round" stroke-miterlimit="10" stroke-width="5"/><path d="m486.06 734.51c0 3.81-8.53 7.39-23.52 10.5-32.25 6.7-94.41 11.24-165.78 11.24s-133.53-4.54-165.76-11.25c-15-3.11-23.52-6.69-23.52-10.5 0-12 84.75-21.74 189.3-21.74s189.28 9.74 189.28 21.75z" fill="#fff" stroke="#ffb000" stroke-miterlimit="10" stroke-width="5"/><path d="m486.06 734.51v21c0 12-84.76 21.74-189.3 21.74s-189.3-9.73-189.3-21.74v-21c0 3.81 8.53 7.39 23.52 10.5 32.25 6.7 94.4 11.24 165.78 11.24s133.53-4.54 165.78-11.25c14.99-3.1 23.52-6.68 23.52-10.49z" fill="#ffd880" stroke="#ffb000" stroke-miterlimit="10" stroke-width="5"/><path d="m266.23 1064.52c8.37 4.78 26.28 5.31 29.47 17.58s-14.34 60.85-11.55 78 2.54 53.77-25.88 57.73c-31.45 4.38-55.34-6.37-55.34-18.32s18.32-25.51 21.07-45.81 10-64.1 10-64.1z" fill="#ffb000"/><path d="m226.12 1118s13.27-11.5 33.62 0" fill="none" stroke="#fff" stroke-linecap="round" stroke-linejoin="round" stroke-width="4"/><path d="m223.12 1132s13.27-11.5 33.62 0" fill="none" stroke="#fff" stroke-linecap="round" stroke-linejoin="round" stroke-width="4"/><path d="m220.12 1146s13.27-11.5 33.62 0" fill="none" stroke="#fff" stroke-linecap="round" stroke-linejoin="round" stroke-width="4"/><path d="m373.48 1124.82c-5.32 7.78-36 26.89-34.39 35.65s29.86 34.24 31.85 47.77-.79 33.84 11.15 39.82 75.25 6.37 85.6 0-.8-26.68-11.95-31.06-41-54.14-39.28-84.8z" fill="#ffb000"/><path d="m429.57 1160.75s-13.27-11.5-33.62 0" fill="none" stroke="#fff" stroke-linecap="round" stroke-linejoin="round" stroke-width="4"/><path d="m434.57 1174.75s-13.27-11.5-33.62 0" fill="none" stroke="#fff" stroke-linecap="round" stroke-linejoin="round" stroke-width="4"/><path d="m440.57 1188.75s-13.27-11.5-33.62 0" fill="none" stroke="#fff" stroke-linecap="round" stroke-linejoin="round" stroke-width="4"/><path d="m183.25 586.83s-183.25 72.96-183.25 135.73c0 111.93 156.27 318 188.25 314.91s53.51-28.88 52.28-42.41-59-187.64-100.28-246.69c0 0 126.12-32 142.73-32.6s102.11 45.52 103.34 47.36-44.2 126.56-17.84 289.1c3.69 22.76 72.58 27.68 79.35 18.46s83-330.32 72.58-356.15-98-96.53-150.93-124.71c-38.14-20.3-186.23-3-186.23-3z" fill="#424d76"/><path d="m426.69 1103.34c-1.14 3.52-6.55 20.09-10.23 28.86-3.52 8.37-47.37 5.53-43-7.39 3.73-11 3.79-26 3.72-30.22 7.18 2.85 27.54 10 49.51 8.75z" fill="#c36f0b"/><path d="m427.53 1103.29 12.25-29.18s-39.77 4.94-66.3-13.39l1 32.72s27.58 12.56 53.05 9.85z" fill="#6562cf"/><path d="m248.15 1030.09s14.5 30.05 18.08 34.43-16.32 26.67-32.24 25.08l-25.44-34.29s27.29-5.1 39.6-25.22z" fill="#c36f0b"/><path d="m238.91 1003.73 10.24 26.36s-15.89 22.05-42.6 26.22l-18.3-18.84s34.27-4.13 50.66-33.74z" fill="#6562cf"/><path d="m356.33 211c16.18 11.89 60.14 32.68 87.5 51.83 22.07 15.45 41.76 83 41.76 83s-30.73 31.34-82.35 43.63c0 0-29.5 91-40.56 197.28 0 0-94.65 35-180.07 0 0 0-34.42-194.82-38.72-196s-68.08-20.75-89-52.1c0 0 24.67-71.07 58.3-85 36.54-15.14 85.23-35.89 102.17-45 8.64-4.72 140.97 2.36 140.97 2.36z" fill="#eaeaff"/><g fill="#fff"><path d="m130.18 246.49-71.74 96.78c-.78-.93-1.53-1.87-2.22-2.83l67.71-91.32z"/><path d="m165.26 231.57-92.65 125c-.93-.71-1.84-1.42-2.73-2.14l89-120.08z"/><path d="m201.11 215.59-112.37 151.57c-1-.58-2-1.16-3-1.77l108.79-146.76c2.31-1.06 4.47-2.07 6.58-3.04z"/><path d="m231.43 207.07-125.34 169.06c-1.06-.49-2.12-1-3.19-1.51l124.1-167.43c1.4-.05 2.87-.1 4.43-.12z"/><path d="m255.39 207.12-131 176.77-3.39-1.31 130.13-175.52z"/><path d="m279 207.71-135.58 182.83c-.69-.21-1.89-.58-3.5-1.1l134.82-181.85c1.41.03 2.81.07 4.26.12z"/><path d="m302.35 208.54-152.27 205.37c-.33-1.56-.65-3.06-1-4.5l149.05-201z"/><path d="m325.62 209.52-170.33 229.75c-.31-1.55-.61-3.08-.91-4.58l167.07-225.36z"/><path d="m348.81 210.62-188.52 254.29c-.3-1.54-.6-3.09-.89-4.62l185.25-249.87z"/><path d="m367.28 218.1-202.13 272.63c-.28-1.55-.57-3.1-.86-4.65l200-269.79c.96.59 1.96 1.19 2.99 1.81z"/><path d="m384.15 227.71-214.15 288.91c-.29-1.54-.57-3.09-.86-4.66l211.95-285.96c1.01.58 2.03 1.15 3.06 1.71z"/><path d="m401.17 237.13-226.48 305.48c-.27-1.53-.55-3.09-.84-4.67l224.27-302.5z"/><path d="m418.08 246.7-238.69 322c-.27-1.49-.54-3-.84-4.69l236.51-319.01z"/><path d="m434.64 256.73-246.31 332.27-3.33-1.33 246.73-332.8z"/><path d="m450 268.46-242.19 326.61c-1.2-.3-2.39-.63-3.59-1l243.3-328.18c.82.82 1.63 1.66 2.48 2.57z"/><path d="m461.4 285.39-232.77 314c-1.28-.19-2.57-.4-3.85-.64l234.75-316.65c.63 1.07 1.25 2.18 1.87 3.29z"/><path d="m402.7 391.12c-.58 1.86-1.61 5.2-3 9.85l-148.85 200.82c-1.37-.09-2.73-.18-4.11-.3z"/><path d="m470.86 305-61.4 82.82c-1.76.49-3.55 1-5.35 1.4l65.14-87.88c.54 1.24 1.08 2.46 1.61 3.66z"/><path d="m388.46 442.73c-.71 2.8-1.41 5.7-2.12 8.67l-111.79 150.8c-1.45 0-2.9.06-4.37.07z"/><path d="m479.13 326.23-36.13 48.77c-2.14 1.06-4.35 2.11-6.65 3.14l41.38-55.82c.48 1.34.95 2.68 1.4 3.91z"/><path d="m377.9 489.35q-.81 3.93-1.61 8l-76.43 103.1c-1.55.17-3.1.34-4.68.49z"/><path d="m370 532.42c-.39 2.45-.79 4.91-1.17 7.39l-41.83 56.4c-1.63.32-3.31.65-5 1z"/></g><path d="m515 507.3c-2.26 42-81.92 81-123.93 98.7-1.39 8.7-7.1 12.51-18.08 15.34-22.89 5.9-20.74 21-21.92 23.88-1.85 4.59-24.43 9.82-29.86 6-3.23-2.29 5.89-31.05 11.08-41.16 3.23-6.29 24.87-18.2 39.06-23.33 0 0 72-87.27 81.86-92.19 0 0-26.63-73-37.77-99.27-1.59-3.77-2.87-6.57-3.7-8.06 0 0 40-12 67.06-35.3 0 0 2.45 6.11 6.06 16.16 10.87 30.26 32.43 96.32 30.14 139.23z" fill="#c36f0b"/><path d="m484.85 368.06c-5.6 5.95-22.62 18.84-69.42 27.2-1.6-3.76-2.88-6.57-3.71-8.06 0 0 40-12 67.07-35.3 0 0 2.44 6.1 6.06 16.16z" fill="#b65a18"/><path d="m226.85 650.21c-6.07 2.68-24.2-2.34-25.86-5s-4-19.2-21.91-24.88c-12.82-4.07-18.64-8.12-18.42-20.77-37.27-12.73-136.38-50.49-140.87-93.36-3-28.6 26.91-110.41 39.4-143 3.27-8.51 5.34-13.67 5.34-13.67 28.81 24 66.2 36.52 66.2 36.52l-3.09 8.47-36.07 98.78c16.42 6.23 76.22 79.67 85.54 91.2 19.43 3.76 40.24 17.27 42.67 24.55 2.55 7.63 13.32 38.39 7.07 41.16z" fill="#c36f0b"/><path d="m64.54 349.51c28.8 24 66.2 36.52 66.2 36.52l-3.09 8.46c-19.75-3.12-52.19-10.75-68.45-31.32 3.26-8.5 5.34-13.66 5.34-13.66z" fill="#b65a18"/><path d="m419.4 677.63h-289.55l-48.74-191.58a17.53 17.53 0 0 1 16.89-22.38h353.29a17.53 17.53 0 0 1 16.85 22.38z" fill="#fff" stroke="#6562cf" stroke-miterlimit="10" stroke-width="7"/><path d="m410.62 675.83h-272l-45.79-180c-3-10.53-5.12-23 5.83-23h351.92c10.95 0 8.86 12.49 5.83 23z" fill="#6562cf"/><path d="m291.18 589.74h-33.11a5 5 0 0 1 -4.84-3.77l-3.95-21.33a2.3 2.3 0 0 1 2.21-2.93h46.27a2.3 2.3 0 0 1 2.21 2.93l-3.97 21.36a5 5 0 0 1 -4.82 3.74z" fill="none" stroke="#fff" stroke-linejoin="round" stroke-width="6"/><path d="m318.63 152s-1.64 36 37.7 59c0 0-39 28.4-71.29 64.88 0 0-34.6-42.31-69.65-67.33 0 0 34.41-27.05 34.41-56.54z" fill="#b65a18"/><path d="m352.11 132.18c-3.95 5.18-11.08 14.89-14.52 21.86-6.12 33.19-27 55.15-53.47 55.15-22.94 0-38.44-25.72-45.58-49.63a10.89 10.89 0 0 1 -.42-1.33c-1.77-6.59-11.36-19.7-16.18-26a4.42 4.42 0 0 1 1.33-6.52c5.88-3.37 8.93-.92 10.53 2.28-.85-23.91.14-49 14.06-49.14 16-.15 69.21-1.2 78.43 1.88 7.93 2.64 13.16 13.75 13.18 49.26 1.25-4 4.25-8.33 11.31-4.28a4.42 4.42 0 0 1 1.33 6.47z" fill="#c36f0b"/><path d="m361.67 88.67c-10.58 13.3-23.11 44.09-23.11 44.09s4.55-47.66-13.89-47.14c-8.77.24-26.41 12.53-44.88 10.53-15.34-1.66-34.5-22.48-42.39-8.87-4.37 10.43-4.06 26.8-3.4 43.64-4.71-21.55-14.45-35.89-19.8-44.45-11.24-5.83-20.06-18.31-17.52-31 4.32-21.47 20.87-20.27 20.87-20.27 27.91 2.89 11.62-13.38 45.45-28.75s72.31-.82 75.62 17.7c2.28 12.7 10.09 6.34 22.32 12 17.18 8.02 13.16 36.85.73 52.52z" fill="#ffb000"/><path d="m260.88 103.08c47.36 6 52.06-19.71 72.45-16.6" fill="none" stroke="#ffb000" stroke-miterlimit="10" stroke-width="3"/></svg>