<svg viewBox="0 0 947.48 1240.91" xmlns="http://www.w3.org/2000/svg"><path d="m440.7 1234.31a6.11 6.11 0 0 1 -6.11-5.91l27.2-380.52h37.82l-52.8 380.52a6.11 6.11 0 0 1 -6.11 5.91z" fill="#fff" stroke="#3f4d79" stroke-linecap="round" stroke-miterlimit="10" stroke-width="5"/><path d="m675.7 1234.31a6.11 6.11 0 0 1 -6.11-5.91l-52.8-380.52h37.82l27.2 380.52a6.11 6.11 0 0 1 -6.11 5.91z" fill="#fff" stroke="#3f4d79" stroke-linecap="round" stroke-miterlimit="10" stroke-width="5"/><path d="m784.7 1234.31a6.11 6.11 0 0 1 -6.11-5.91l-52.8-380.52h37.82l27.2 380.52a6.11 6.11 0 0 1 -6.11 5.91z" fill="#fff" stroke="#3f4d79" stroke-linecap="round" stroke-miterlimit="10" stroke-width="5"/><path d="m798.68 766.29-10.92 43.8h-35.9l10.92-43.8z" fill="#fff" stroke="#3f4d79" stroke-linecap="round" stroke-miterlimit="10" stroke-width="5"/><path d="m658.55 766.29-10.92 43.8h-35.9l10.92-43.8z" fill="#fff" stroke="#3f4d79" stroke-linecap="round" stroke-miterlimit="10" stroke-width="5"/><rect fill="#ffb000" height="44.79" rx="22.4" width="420.05" x="394.97" y="807.08"/><path d="m947 458.53-68.05 273a49.79 49.79 0 0 1 -48.31 37.74h-248c-13.73 0-23.28-20.75-18.55-40.32l67.79-280.34c3.22-13.32 11.57-22.16 20.92-22.16h269.44c10.94 0 28.49 16.55 24.76 32.08z" fill="#ffb000"/><path d="m164.34 1168.44c0 6.92 21.41 28.11 14.2 63.53 0 0-52.82.08-78.73.24-30.8.19-96.31.19-96.31.19s-6.36-28.23 27.38-32.14 76.51-39.57 76.51-39.57z" fill="#e2631e"/><path d="m180.81 1235.21c-30.8.19-177.31.19-177.31.19" fill="none" stroke="#3f4d79" stroke-linecap="round" stroke-miterlimit="10" stroke-width="7"/><path d="m108.39 1160.69c3.34-9.31 8.15-39.72 8.15-39.72l54.27 4.76s-9 20.33-7.47 41.71c.52 7.21-58.62 3.46-54.95-6.75z" fill="#ffc0b7"/><path d="m656.08 781.24c-60.34 24.66-343.21 9.09-343.21 9.09s-5.79 221.61-112.16 336.33c0 0-73.37-2.46-93.48-7.65 0 0 55.6-331.66 95.35-396.81 21-34.49 257.44-87.12 308.42-91.55a286.07 286.07 0 0 0 48.13 25.8c46.34 19.55 93.87 26.55 129.61 28.62 5.49 32.04 6.36 80.23-32.66 96.17z" fill="#3c4564"/><path d="m205.34 1168.44c0 6.92 21.41 28.11 14.2 63.53 0 0-52.82.08-78.73.24-30.8.19-96.31.19-96.31.19s-6.36-28.23 27.38-32.14 76.51-39.57 76.51-39.57z" fill="#fe7523"/><path d="m221.81 1235.21c-30.8.19-177.31.19-177.31.19" fill="none" stroke="#3f4d79" stroke-linecap="round" stroke-miterlimit="10" stroke-width="7"/><path d="m149.39 1160.69c3.34-9.31 8.15-39.72 8.15-39.72l62.27 6.76s-11.3 10.36-15.47 39.71c-1.02 7.15-58.62 3.46-54.95-6.75z" fill="#ffcfc9"/><path d="m699.75 807.31c-60.34 24.69-343.21 9.09-343.21 9.09s5.84 193-127.78 311.68c0 0-66.86-4.81-87-10 0 0 85.64-313.36 104.46-369.81 10.3-30.9 273-90.48 312.88-91.82 65.79 27.76 133.9 30.15 167.44 29.25 5.99 20.3 25.72 100.16-26.79 121.61z" fill="#3f4d79"/><path d="m527.25 547c-68.44 13.65-232.86 7.8-301.79-6.05a105.47 105.47 0 0 1 -11.76 7.89c-9 5.17-26.33 9.35-30.44 9.12s-29.33-4.1-29.33-4.1-.9-2.85 2.79-6.61 30.74-.77 20.85-9c-4.4-3.68-26.31 4.6-35.84 13.78s-14 1.91-14 1.91 9.12-17 12.39-20.08 25-16.14 39.72-18.13c10.66-1.44 36.3.54 49.87 3.81 50.29-11.94 146.78-27.16 215.48-26.61 9.13-38 20.22-84.52 23.17-98.28l48.84 32z" fill="#ffc0b7"/><path d="m468.36 394.65-3.08 13.65s12.65 32.05 53.48 42.63l-1.56-24.3z" fill="#fab6ad"/><path d="m765.82 480.06s-3.65-.23-9.8-.86c-7 51.69-13.16 95.11-13.16 104.64 0 25.61 5 100.61 5 100.61s-134.86 15.13-237.72-54.39c0 0 23.84-32.09 11.47-133.21-8.22-67.27-4.41-70.22-4.41-70.22s-25.2-13.14-60.94-41.45c0 0 18.55-91.7 48.14-109.69s75.51-26.38 106-37.86 76.84-23.4 76.84-23.4c12.37 10.15 71.1 38.86 85.67 56.08 20.76 19.03 49.22 94.5-7.09 209.75z" fill="#ceeff7"/><path d="m647.25 449.9s12.61-20.71 27.82-96.21" fill="none" stroke="#84d7ec" stroke-miterlimit="10" stroke-width="5"/><path d="m516.08 424.72c-1.44-18.26.5-52.43 2.86-71.42" fill="none" stroke="#84d7ec" stroke-miterlimit="10" stroke-width="5"/><path d="m756 479.2s-53.45 135.08-77.65 137.32c-78.82 7.29-210.54-67.77-239-68.65l-12.48-.4c-7 4.11-15.9 7.61-23.43 5.4-15.18-4.44-27.34-15.41-37.4-10.7s-21.67 13.75-28.05 13c-13.35-1.61-21.05-8.7-21.05-8.7s8.31-9.06 16.7-17.67c-5.95 2.33-15 8.73-19.63 10.93-7 3.31-10.6-2.61-10.6-2.61s15.61-13.79 21-17.06c5.21-3.15 19.83-6.46 27.21-6.62 8.93-1.2 57.91-7.89 83.15-5.23 28.94-1.07 87 1 189.28 20.23l29.31-75.18s44.51 19.79 102.64 25.94z" fill="#ffcfc9"/><path d="m756 479.21s-4.83 12.21-12.25 29.35c-24.31-7.18-63.72-22.43-92-51.18l1.61-4.14s44.52 19.81 102.64 25.97z" fill="#fab6ad"/><path d="m633.78 124.14s4 57 53.43 90.09c0 0-26.05 57-86.11 60.94s-14.77-29.79-14.77-29.79-15.67-51.85-18.33-64.21z" fill="#ffcfc9"/><path d="m633.6 153.74c-3 26.07-26 63.44-54.53 67.27-4.48-15.25-9.64-33.22-11.06-39.84l62.45-54.17 1.94 3.86s1.84 17.38 1.2 22.88z" fill="#fab6ad"/><path d="m629.08 128.22s.93 17.87-1.47 22.86c-11.05 23-45.7 49.4-72.64 49.4-20.85 0-45.28-63.53-47.48-86.94s.88-60.5 57.4-64.91 60.5 54.31 60.5 54.31z" fill="#ffcfc9"/><path d="m464.21 89.7s-10.51-20.88 7.06-36.21c20.73-18.11 39.73-9.72 50.35-21.2s32.81-36 65.8-31.81c29.58 3.76 38.21 24.3 38.21 24.3s18.3-7.71 34.19 13-22.49 107-22.49 107-10.33-34.38-11.94-41.78c-3.61-16.57-36.21-12.66-33.56-45.05 0 0-8.83 22.08-42.39 21.66-10-.12-22.92-2.86-35.75-4.76-7.1 12.57-7.29 27.3-6.2 38.74 0-.05-30.01-.51-43.28-23.89z" fill="#fe7523"/><g stroke-miterlimit="10"><path d="m624.72 24.78s14.82-14.09 30.55-.62" fill="none" stroke="#fe7523" stroke-width="3"/><path d="m591.83 56.08s-6.15 29.73-39.66 31.67" fill="none" stroke="#fe7523" stroke-width="3"/><path d="m634.27 93.54-10.66-80.49a10.59 10.59 0 0 0 -11.27-9.18" fill="none" stroke="#3f4d79" stroke-linecap="round" stroke-width="5"/><path d="m643.14 151.92c2.86 14.08 27.76 52.59-15.53 126.08s13 95.38-15.47 145.72-90.19 47.58-87 131.82c2.1 55.43-47.6 62.93-44.73 0" fill="none" stroke="#3f4d79" stroke-linecap="round" stroke-width="5"/><path d="m552.43 480.07c14.86-12.13 29.89-80.82 6.05-119.9s-47.14-91.76-12-158.12" fill="none" stroke="#3f4d79" stroke-linecap="round" stroke-width="5"/><rect fill="#fff" height="59.05" rx="11.71" stroke="#ecbe02" stroke-width="6" transform="matrix(.98878246 -.14936277 .14936277 .98878246 -11.2 96.67)" width="44.68" x="615.37" y="93.35"/></g><path d="m20.9 575.65h538.1c5.72 0 10.36 6.64 10.36 14.84v1.36c0 8.19-4.64 14.83-10.36 14.83h-405.1" fill="#fff"/><path d="m26.9 573.65h532.1c5.72 0 10.36 6.64 10.36 14.84v1.36c0 8.19-4.64 14.83-10.36 14.83h-403.1" fill="none" stroke="#3cbfd4" stroke-linecap="round" stroke-miterlimit="10" stroke-width="5"/><path d="m533.71 1240.91-101.95-635.23h35.1l100.95 634.23z" fill="#fff"/><path d="m472.79 637.94-37.86-14.13-3.18-18.13h35.12z" fill="#ceeff7"/><path d="m531.71 1236.91-99.95-631.23h35.1l98.95 630.23" fill="none" stroke="#3cbfd4" stroke-linecap="round" stroke-miterlimit="10" stroke-width="7"/><path d="m405.1 547.5h-302.83a19.59 19.59 0 0 1 -18.4-12.84l-69.79-190.19a15.59 15.59 0 0 1 14.64-21h306.83a22.08 22.08 0 0 1 20.73 14.53l67.22 183.16a19.6 19.6 0 0 1 -18.4 26.34z" fill="#fff" stroke="#ffb000" stroke-miterlimit="10" stroke-width="5"/><path d="m391.92 547.5h-292.65a19 19 0 0 1 -17.78-12.84l-67.44-190.19c-3.61-10.17 3.67-21 14.15-21h296.51a21.38 21.38 0 0 1 20 14.48l65 183.17c4.52 12.88-4.63 26.38-17.79 26.38z" fill="#fff" stroke="#ffb000" stroke-miterlimit="10" stroke-width="5"/><rect fill="#fff" height="20.66" rx="10.07" stroke="#ffb000" stroke-miterlimit="10" stroke-width="5" width="455.83" x="88.58" y="547.5"/></svg>